<?xml version="1.0" encoding="UTF-8"?>
<svg id="Layer_1" data-name="Layer 1" xmlns="http://www.w3.org/2000/svg" viewBox="0 0 450 500">
  <defs>
    <style>
      .cls-1 {
        fill: #fff;
      }
    </style>
  </defs>
  <path class="cls-1" d="M1.46,324.57c6.46,3.11,11.07,4.98,15.34,7.44,49.39,28.4,98.72,56.89,148.07,85.35,15.67,9.04,30.87,19.12,47.27,26.56,7.03,3.19,18.34,4.01,24.7,.5,50.66-28.03,100.83-56.98,150.47-86.78,6.28-3.77,11.46-13.8,12.22-21.42,1.78-17.71,.06-35.75,.72-53.61,.47-12.88-4.73-20.83-15.87-27.17-64.21-36.57-128.14-73.64-192.13-110.59-4.37-2.52-8.52-5.42-16.22-10.36,17.46-10.2,32.45-18.96,48.52-28.35,9.87,5.62,20.02,11.35,30.13,17.17,53.44,30.76,106.69,61.86,160.39,92.18,23.7,13.38,35.51,32.46,34.92,59.71-.5,23.06-.09,46.14-.13,69.21-.04,24.34-11.09,42.03-32.16,54.1-52.69,30.2-105.41,60.36-157.79,91.09-23.97,14.06-46.68,13.84-70.55-.38-31.31-18.65-63.44-35.92-95.04-54.11-22.86-13.16-45.82-26.21-68-40.46C1.74,378.84-2.64,354.68,1.46,324.57Z"/>
  <path class="cls-1" d="M273.65,365.83c-18.17,10.62-33.04,19.31-48.6,28.4-40.27-23.15-80.22-46.09-120.15-69.07-24.08-13.85-48.02-27.95-72.22-41.58C10.99,271.36-.05,253.19,0,228.29c.05-24.02,.02-48.04,.04-72.06,.02-24.28,10.71-42.11,31.89-54.21,53.55-30.61,107.03-61.35,160.34-92.38,22.09-12.86,43.52-12.85,65.49,.08,29.22,17.19,58.69,33.97,88.07,50.88,25.05,14.42,50.3,28.51,75.16,43.26,24.19,14.36,34.38,41.8,26.01,71.49-5.07-2.54-9.95-4.67-14.53-7.31-63.25-36.4-126.6-72.64-189.58-109.52-12.4-7.26-22.61-7.84-35.28-.33-46.99,27.83-94.39,54.99-141.97,81.8-11.79,6.64-16.69,15.19-16.06,28.51,.75,15.98,.79,32.05,0,48.02-.66,13.36,4.19,22.05,16.06,28.53,25.2,13.77,49.88,28.5,74.77,42.83,39.19,22.57,78.39,45.11,117.55,67.73,4.35,2.52,8.45,5.48,15.73,10.23Z"/>
  <path class="cls-1" d="M100.64,207.14v-29.07c7.56-4.46,15.56-9.18,24.56-14.48,75.08,43.26,150.15,86.52,225.03,129.66v29.06c-7.66,4.51-15.68,9.22-24.59,14.47-74.7-43.04-149.41-86.08-225-129.64Z"/>
</svg>