<svg xmlns="http://www.w3.org/2000/svg" width="250" height="250" viewBox="0 0 250 250"><g transform="translate(30.153 30.146)"><rect width="250" height="250" transform="translate(-30.153 -30.146)" fill="none"/><path d="M190.57,95.29a95.36,95.36,0,1,0-44,80.28h.54v-.35A95.28,95.28,0,0,0,190.57,95.29ZM95.29,3a92.24,92.24,0,0,1,75,146l-.86-23-13.12-3.66L153.89,94l2.69.89a1.33,1.33,0,0,0,.47.08,1.5,1.5,0,0,0,.47-2.92l-3.91-1.3-.79-9.36-.33-.11L150,64.21a4.22,4.22,0,1,0-6.26-.48L142,77.86l-.7-.23V67.84h-.13c-3.06-20.4-19.33-35.63-39.92-38.14a6.16,6.16,0,0,0-12,0c-20.58,2.49-36.91,17.75-40,38.14h-.07v9.4l-1.6.54L45.92,63.73a4.14,4.14,0,0,0,.88-2.55,4.22,4.22,0,1,0-7.13,3l-2.5,17.16h-.09l-.62,9-5,1.65a1.5,1.5,0,1,0,.92,2.85l3.9-1.27-2,28.58L21.17,126l-.85,23a92.23,92.23,0,0,1,75-146Zm49.77,116.23L137.12,117V106l4.1-4,3.84,6.45Zm-3.22-22-7.72,7.59V116.2l-1.35-.37V104.39L126,93.25l-7.18,8.36v10.32l-2.58-.72V100.7l-6.77-12.23L102.31,98v9.38l-5.52-1.54V75l54,17.93,2.42,28.54-5.15-1.44V107.65ZM129.77,115l-7.94-2.21v-10l3.76-4.38,4.18,6.89Zm-16.52-4.59-7.94-2.21V99l3.78-5,4.16,7.52Zm-28.16-3-7.94,2.32v-8.44l4.16-7.52,3.78,5ZM80.92,88.22l-6.77,12.23v10.1l-2.57.75v-9.94L64.4,93l-6.76,11.14v11.23l-1.36.4V104.55L48.56,97l-6.22,10.4v12c1-.25,2-.5,3-.73V108.23l3.85-6.45,4.09,4v10.84L37.34,121.3l2-28.68L93.79,74.91V105l-.26-.07-5.44,1.59V97.7Zm-12.34,24-7.94,2.32V105l4.17-6.89,3.77,4.38Zm-27.21-51a1.272,1.272,0,1,0,0-.04ZM43.1,65.4l1.58,13a1.42,1.42,0,0,0,.12.4l-4.44,1.52L42.53,65.4ZM39.94,83.59,93.6,65.21l.19.06v6.48L39.54,89.39Zm12.3-15.07c3-21,21.11-36.19,43-36.19,22.09,0,40.19,15.37,43.07,36.55v7.77L99.77,64.07,97.53,44.68a5,5,0,1,0-7.18.58L88.19,63.89,52.24,76.21ZM92.63,29.41a3.16,3.16,0,0,1,5.31,0c-.89-.05-1.78-.08-2.68-.08S93.5,29.36,92.63,29.41Zm53.25,31.77a1.21,1.21,0,1,1,.351.862,1.21,1.21,0,0,1-.351-.862ZM145,78.36l1.58-13h.58l2.16,14.83-4.44-1.44a1.32,1.32,0,0,0,.12-.39Zm5,5.25.52,6.1L96.79,71.87V66.25ZM91.62,41.5a2,2,0,1,1,2,2A2,2,0,0,1,91.62,41.5Zm3.1,5L96.63,63l-3-1-2.24.77,1.88-16.29ZM23.18,152.81l.91-24.51L93.55,108l.24.06v64.5H44.91a92.671,92.671,0,0,1-8.4-6.19l10.29-1.31v-28.8l-9.06-8.9-7.36,12.36v21.1a92.808,92.808,0,0,1-7.2-8.01Zm10.2,10.86V140.54l5-8.36,5.44,5.34v24.91l-10.33,1.31Zm61.91,23.9a91.78,91.78,0,0,1-45.47-12h90.93a91.77,91.77,0,0,1-45.46,12Zm62.08-24.06-.16.14L147,162.35V137.44l5.44-5.34,5,8.36Zm3-2.86v-21L153,127.29l-9,8.89V165l10.22,1.3a91.93,91.93,0,0,1-8.51,6.28H96.79V108.91l69.72,19.4.9,24.33h.12A93.682,93.682,0,0,1,160.37,160.65Z" fill="#673AB7"/><path d="M91.93,23.84H98.3a1.5,1.5,0,1,0,0-3H91.93a1.5,1.5,0,0,0,0,3Z" fill="#673AB7"/><path d="M92.93,19.71H97.3a1.5,1.5,0,0,0,0-3H92.93a1.5,1.5,0,0,0,0,3Z" fill="#673AB7"/><path d="M93.93,15.59H96.3a1.5,1.5,0,0,0,0-3H93.93a1.5,1.5,0,0,0,0,3Z" fill="#673AB7"/><path d="M85.8,127.84l-8.4-11.12-8,14.47v31.42l16.41-2.1Zm-3,30L72.39,159.2V132l5.4-9.76,5,6.63Z" fill="#673AB7"/><path d="M65.55,132.34l-8.42-9.8-8,13.17v29.45l16.41-2.09Zm-3,28.09-10.41,1.33V136.55l5.41-8.92,5,5.82Z" fill="#673AB7"/><path d="M105,127.76v32.67l16.41,2.1V131.11l-8-14.47Zm13.41,31.36L108,157.79v-29l5-6.63,5.4,9.76Z" fill="#673AB7"/><path d="M125.2,132.26V163l16.41,2.09V135.63l-8-13.17Zm13.41,29.42-10.41-1.33v-27l5-5.82,5.41,8.92Z" fill="#673AB7"/></g></svg>