<svg xmlns="http://www.w3.org/2000/svg" width="250" height="250" viewBox="0 0 250 250"><g transform="translate(29.929 24)"><rect width="250" height="250" transform="translate(-29.929 -24)" fill="none"/><path d="M100.83,10.7V0H85.08V11a94.8,94.8,0,1,0,15.75-.32ZM183.11,128v2.67c-.32,1.12-.67,2.22-1,3.32h-.23v.7c-.75,2.23-1.59,4.41-2.5,6.55h-169c-.92-2.14-1.75-4.33-2.51-6.55V134H7.59c-.28-.83-.54-1.67-.79-2.51V128h-1c-.49-1.89-.91-3.82-1.27-5.76H185.1c-.36,1.94-.79,3.87-1.27,5.76ZM11.2,143.25H66.75v11.92h-49a91.639,91.639,0,0,1-6.55-11.92Zm58.55,0h5.17v11.92H69.75Zm8.17,0h29.33v11.92H77.92Zm32.33,0h4.58v11.92h-4.58Zm7.58,0h60.64a91.7,91.7,0,0,1-6.54,11.92h-54.1Zm.15-24-14.1-81.5,28.59,81.5Zm17.67,0L107.54,39.11l42.06,80.14Zm17.34,0L110.53,38.36l58.29,80.89Zm-38.06,0h-4.78L94.71,21.75h3.36Zm-7.82,0H78.8L93,29.84Zm-31.34,0H71l16.86-97.5H91.2Zm-39.46,0L78.38,39.11,50.27,119.25ZM82,37.75l-14.09,81.5H53.45Zm-49.1,81.5H17.1L75.39,38.36Zm-19.53,0H4.05q-.42-2.82-.68-5.7L70.26,40.34Zm159.12,0L115.66,40.34l70.24,76.88c-.09.68-.18,1.36-.29,2Zm14.15-13.91q0,4-.35,7.89L100.83,19.67v-6a91.63,91.63,0,0,1,85.84,91.67ZM88.08,3h9.75V18.75H88.08ZM27.19,43.22A91.51,91.51,0,0,1,85.08,14v5.63l-82,89.73c0-1.35-.09-2.7-.09-4.06a91.58,91.58,0,0,1,24.2-62.08ZM158,172v-.22H143.45v4h10.26a91.7,91.7,0,0,1-134-17.58H169.9A92.421,92.421,0,0,1,158,172Z" fill="#673AB7"/><rect width="37.75" height="4" transform="translate(62.83 171.75)" fill="#673AB7"/><rect width="34.88" height="4" transform="translate(84.58 187.75)" fill="#673AB7"/><rect width="3.92" height="4" transform="translate(128.26 128.01)" fill="#673AB7"/><rect width="3.92" height="4" transform="translate(81.24 128.01)" fill="#673AB7"/><rect width="3.92" height="4" transform="translate(136.09 128.01)" fill="#673AB7"/><rect width="3.92" height="4" transform="translate(143.93 128.01)" fill="#673AB7"/><rect width="3.92" height="4" transform="translate(34.23 128.01)" fill="#673AB7"/><rect width="3.92" height="4" transform="translate(49.9 128.01)" fill="#673AB7"/><rect width="3.92" height="4" transform="translate(112.58 128.01)" fill="#673AB7"/><rect width="3.92" height="4" transform="translate(104.75 128.01)" fill="#673AB7"/><rect width="3.92" height="4" transform="translate(42.06 128.01)" fill="#673AB7"/><rect width="3.92" height="4" transform="translate(120.42 128.01)" fill="#673AB7"/><rect width="3.92" height="4" transform="translate(151.76 128.01)" fill="#673AB7"/><rect width="3.92" height="4" transform="translate(10.72 128.01)" fill="#673AB7"/><rect width="3.92" height="4" transform="translate(73.4 128.01)" fill="#673AB7"/><rect width="3.92" height="4" transform="translate(65.57 128.01)" fill="#673AB7"/><rect width="3.92" height="4" transform="translate(175.27 128.01)" fill="#673AB7"/><rect width="3.92" height="4" transform="translate(167.44 128.01)" fill="#673AB7"/><rect width="3.92" height="4" transform="translate(57.73 128.01)" fill="#673AB7"/><rect width="3.92" height="4" transform="translate(89.08 128.01)" fill="#673AB7"/><rect width="3.92" height="4" transform="translate(26.39 128.01)" fill="#673AB7"/><rect width="3.92" height="4" transform="translate(18.55 128.01)" fill="#673AB7"/><rect width="3.92" height="4" transform="translate(159.6 128.01)" fill="#673AB7"/><rect width="3.92" height="4" transform="translate(96.91 128.01)" fill="#673AB7"/><rect width="2.95" height="2" transform="translate(52.06 134)" fill="#673AB7"/><rect width="2.95" height="2" transform="translate(57.96 134)" fill="#673AB7"/><rect width="2.95" height="2" transform="translate(63.86 134)" fill="#673AB7"/><rect width="2.95" height="2" transform="translate(34.36 134)" fill="#673AB7"/><rect width="2.95" height="2" transform="translate(16.66 134)" fill="#673AB7"/><rect width="2.95" height="2" transform="translate(22.56 134)" fill="#673AB7"/><rect width="2.95" height="2" transform="translate(10.76 134)" fill="#673AB7"/><rect width="2.95" height="2" transform="translate(28.46 134)" fill="#673AB7"/><rect width="2.95" height="2" transform="translate(40.26 134)" fill="#673AB7"/><rect width="2.95" height="2" transform="translate(46.16 134)" fill="#673AB7"/><rect width="2.95" height="2" transform="translate(111.06 134)" fill="#673AB7"/><rect width="2.95" height="2" transform="translate(152.35 134)" fill="#673AB7"/><rect width="2.95" height="2" transform="translate(128.76 134)" fill="#673AB7"/><rect width="2.95" height="2" transform="translate(146.45 134)" fill="#673AB7"/><rect width="2.95" height="2" transform="translate(134.66 134)" fill="#673AB7"/><rect width="2.95" height="2" transform="translate(140.55 134)" fill="#673AB7"/><rect width="2.95" height="2" transform="translate(175.95 134)" fill="#673AB7"/><rect width="2.95" height="2" transform="translate(170.05 134)" fill="#673AB7"/><rect width="2.95" height="2" transform="translate(158.25 134)" fill="#673AB7"/><rect width="2.95" height="2" transform="translate(164.15 134)" fill="#673AB7"/><rect width="2.95" height="2" transform="translate(122.86 134)" fill="#673AB7"/><rect width="2.95" height="2" transform="translate(93.36 134)" fill="#673AB7"/><rect width="2.95" height="2" transform="translate(81.56 134)" fill="#673AB7"/><rect width="2.95" height="2" transform="translate(87.46 134)" fill="#673AB7"/><rect width="2.95" height="2" transform="translate(75.66 134)" fill="#673AB7"/><rect width="2.95" height="2" transform="translate(116.96 134)" fill="#673AB7"/><rect width="2.95" height="2" transform="translate(69.76 134)" fill="#673AB7"/><rect width="2.95" height="2" transform="translate(105.16 134)" fill="#673AB7"/><rect width="2.95" height="2" transform="translate(99.26 134)" fill="#673AB7"/></g></svg>